<svg width="24" height="12" viewBox="0 0 24 12" fill="none" xmlns="http://www.w3.org/2000/svg">
<path d="M4.463 6.015C4.382 5.579 3.812 5.339 3.246 5.647L3.392 6.145L3.622 6.882L3.726 7.217C4.149 6.945 4.576 6.618 4.463 6.014V6.015ZM3.901 6.685C3.83658 6.47262 3.77091 6.26061 3.704 6.049L3.645 5.846C3.75574 5.82211 3.87118 5.83366 3.975 5.879C4.028 5.905 4.121 5.963 4.141 6.075C4.188 6.325 4.104 6.504 3.901 6.683V6.685ZM13.009 5.323C12.9308 5.25099 12.8387 5.19584 12.7383 5.161C12.6379 5.12616 12.5314 5.11236 12.4254 5.12048C12.3195 5.12859 12.2163 5.15844 12.1224 5.20817C12.0285 5.25789 11.9458 5.32643 11.8795 5.4095C11.8132 5.49257 11.7648 5.58841 11.7371 5.69103C11.7095 5.79365 11.7033 5.90086 11.7189 6.00598C11.7346 6.1111 11.7717 6.21187 11.8279 6.30203C11.8842 6.39219 11.9584 6.46979 12.046 6.53L13.064 5.377C13.0463 5.35834 13.028 5.34033 13.009 5.323ZM12.048 6.135C11.9988 6.04517 11.9783 5.94238 11.9894 5.84054C12.0005 5.73869 12.0426 5.64271 12.11 5.56558C12.1774 5.48845 12.2669 5.43389 12.3663 5.40928C12.4658 5.38468 12.5704 5.39121 12.666 5.428L12.048 6.135ZM19.599 6.36C19.6083 6.39421 19.6127 6.42956 19.612 6.465C19.602 6.68 19.399 6.847 19.158 6.835C18.917 6.827 18.728 6.644 18.738 6.43C18.745 6.227 18.925 6.068 19.147 6.058C19.1036 6.04822 19.0594 6.04253 19.015 6.041C18.61 6.024 18.28 6.311 18.267 6.667C18.25 7.047 18.556 7.359 18.953 7.376C19.359 7.391 19.688 7.104 19.703 6.725C19.7073 6.5956 19.6703 6.46806 19.599 6.36ZM7.345 6.796C7.345 7.012 7.148 7.186 6.907 7.186C6.665 7.186 6.469 7.013 6.469 6.796C6.469 6.594 6.642 6.428 6.863 6.408C6.81945 6.40004 6.77527 6.39602 6.731 6.396C6.327 6.396 6.008 6.696 6.008 7.052C6.008 7.434 6.328 7.732 6.724 7.732C7.129 7.732 7.447 7.434 7.447 7.052C7.4465 6.92303 7.40481 6.7976 7.328 6.694C7.338 6.724 7.345 6.759 7.345 6.796ZM22.113 4.611L21.933 5.35L21.767 4.53L19.549 4.043L19.565 5.276L19.899 5.351L19.875 5.574L19.865 5.567C19.451 5.349 18.938 5.327 18.455 5.509C18.292 5.569 18.141 5.652 18.005 5.751L17.67 3.639H16.195L16.155 3.883H14.602L14.425 4.968L14.295 4.809C14.1102 4.58261 13.8777 4.3998 13.6141 4.27361C13.3505 4.14743 13.0622 4.08098 12.77 4.079L14.088 3.37L13.17 2L11.507 3.913L11.794 4.263C11.5449 4.36346 11.3165 4.50888 11.12 4.692L9.696 3.428L9.199 4.381L9.218 3.465L6.992 4.177L7.049 5.373L7.428 5.275L7.484 5.88C7.051 5.687 6.53 5.69 6.048 5.894C5.90709 5.95563 5.7733 6.03242 5.649 6.123C5.73719 5.77118 5.7102 5.40034 5.572 5.065C5.40531 4.68379 5.11835 4.36768 4.755 4.165C4.49516 3.99522 4.19867 3.88965 3.89 3.857C3.12 3.722 2.194 3.86 1.284 4.249C0.961887 4.38416 0.651497 4.54571 0.356 4.732L0 4.958L0.215 5.321L0.882 6.448C0.882 6.448 1.086 6.794 1.087 6.793L1.448 6.616L1.498 6.593L3.156 10.293L3.316 10.648L3.686 10.53L4.582 10.242L4.976 10.117L4.872 9.717L4.396 7.888C4.533 7.787 4.66 7.679 4.779 7.567C4.752 7.786 4.766 8.007 4.826 8.219C4.95 8.662 5.242 9.012 5.644 9.205C6.079 9.415 6.609 9.415 7.1 9.207C7.347 9.103 7.567 8.95 7.751 8.768L7.819 9.496L9.389 9.265L9.387 7.858L12.669 9.478V7.908C13.144 7.86075 13.6034 7.71206 14.016 7.472L13.878 8.315L15.648 8.594L15.745 7.957L16.206 8.811L16.489 8.266L16.593 9.161L18.598 9.513L18.492 8.839C18.85 8.87729 19.2113 8.80838 19.53 8.641L19.45 9.359L20.786 9.548L20.796 10.095L22.186 10.533L24 5.069L22.113 4.611ZM14.274 5.421L14.366 5.324L14.254 6.014L13.965 5.752L14.274 5.421ZM13.097 2.608L13.584 3.269L12.194 3.958L12.097 3.812L13.097 2.608ZM3.895 7.699L4.45 9.827L3.552 10.114L1.711 6.002C1.611 6.055 1.427 6.142 1.256 6.225L0.59 5.099C0.856 4.93 1.146 4.78 1.455 4.649C2.323 4.28 3.152 4.169 3.815 4.287C4.048 4.314 4.296 4.382 4.515 4.527C4.813 4.695 5.04 4.933 5.172 5.238C5.492 5.978 4.956 7.045 3.895 7.699ZM8.021 7.321C8.011 7.639 7.894 7.955 7.7 8.224C7.51001 8.49004 7.25105 8.69922 6.951 8.829C6.172 9.159 5.394 8.829 5.187 8.089C4.984 7.375 5.453 6.524 6.207 6.199C6.69 5.997 7.173 6.044 7.519 6.279C7.732 6.425 7.896 6.643 7.972 6.916C8.00917 7.048 8.02569 7.18495 8.021 7.322V7.321ZM12.257 8.825L9.003 7.196L9.009 8.903L8.166 9.018L8.107 8.315C8.367 7.869 8.462 7.343 8.327 6.861C8.25558 6.60319 8.11763 6.36869 7.927 6.181L7.806 4.748L7.429 4.846L7.412 4.484L8.764 4.08L8.847 5.476L9.844 4.076L10.818 5.003L9.456 6.439L10.736 6.946C10.878 7.216 11.096 7.446 11.37 7.616C11.634 7.779 11.938 7.876 12.259 7.907V8.825H12.257ZM10.567 6.465L10.113 6.291L10.536 5.881C10.517 6.069 10.526 6.266 10.566 6.465H10.567ZM14.109 6.892C13.797 7.151 13.439 7.319 12.97 7.432C12.8706 7.45594 12.7697 7.47299 12.668 7.483C11.921 7.556 11.294 7.213 11.056 6.657C11.0266 6.58961 11.0035 6.51965 10.987 6.448C10.877 5.98 10.971 5.561 11.202 5.233C11.2696 5.13692 11.3485 5.0493 11.437 4.972C11.6695 4.7695 11.9484 4.62762 12.249 4.559C12.961 4.388 13.588 4.605 13.972 5.076L12.617 6.52C12.733 6.52963 12.8499 6.51845 12.962 6.487C13.285 6.408 13.466 6.237 13.625 6.051L14.167 6.537L14.331 6.687C14.2605 6.759 14.1864 6.82742 14.109 6.892ZM16.986 8.819L16.692 6.865L16.274 7.943L15.649 6.595H15.642L15.396 8.155L14.355 7.975L14.501 7.105C14.5404 7.06776 14.5791 7.02975 14.617 6.991L14.955 6.643L14.626 6.349L14.976 4.276H16.026L16.288 5.712L16.582 4.049H17.334L17.646 6.075C17.25 6.526 17.056 7.135 17.19 7.69C17.2417 7.91878 17.3471 8.13196 17.4975 8.31193C17.648 8.4919 17.839 8.63349 18.055 8.725L18.095 8.988L16.986 8.819ZM19.581 8.182C19.4646 8.2648 19.3378 8.33204 19.204 8.382C18.9588 8.48023 18.6908 8.50693 18.431 8.459C18.2698 8.42826 18.1171 8.36348 17.983 8.269C17.7653 8.10969 17.6126 7.87706 17.553 7.614C17.473 7.278 17.546 6.918 17.727 6.602C17.818 6.448 17.934 6.304 18.071 6.179C18.223 6.042 18.401 5.929 18.598 5.854C19.057 5.682 19.51 5.742 19.828 5.97C20.0408 6.12283 20.1908 6.3478 20.25 6.603C20.348 7.009 20.232 7.441 19.976 7.79C19.8661 7.9409 19.7327 8.07324 19.581 8.182ZM21.924 10.023L21.154 9.794L21.088 6.956L20.7 9.146L19.86 9.011L19.922 8.381C20.469 7.917 20.76 7.186 20.601 6.525C20.5346 6.23893 20.3833 5.97959 20.167 5.781L20.238 5.038L19.921 4.953L19.941 4.557L21.389 4.847L21.876 7.155L22.375 5.086L23.475 5.33L21.924 10.023Z" fill="black"/>
</svg>
